<?xml version="1.0" encoding="UTF-8" standalone="no"?>
<svg
   xmlns:dc="http://purl.org/dc/elements/1.1/"
   xmlns:cc="http://creativecommons.org/ns#"
   xmlns:rdf="http://www.w3.org/1999/02/22-rdf-syntax-ns#"
   xmlns:svg="http://www.w3.org/2000/svg"
   xmlns="http://www.w3.org/2000/svg"
   xmlns:sodipodi="http://sodipodi.sourceforge.net/DTD/sodipodi-0.dtd"
   xmlns:inkscape="http://www.inkscape.org/namespaces/inkscape"
   width="13.968794mm"
   height="13.967931mm"
   viewBox="0 0 13.968794 13.967931"
   version="1.1"
   id="svg8"
   inkscape:version="1.0.2-2 (e86c870879, 2021-01-15)"
   sodipodi:docname="copyIcon.svg">
  <defs
     id="defs2" />
  <sodipodi:namedview
     id="base"
     pagecolor="#ffffff"
     bordercolor="#666666"
     borderopacity="1.0"
     inkscape:pageopacity="0.0"
     inkscape:pageshadow="2"
     inkscape:zoom="1.4"
     inkscape:cx="-147.41037"
     inkscape:cy="31.480319"
     inkscape:document-units="mm"
     inkscape:current-layer="layer1"
     inkscape:document-rotation="0"
     showgrid="false"
     inkscape:window-width="1920"
     inkscape:window-height="1001"
     inkscape:window-x="-9"
     inkscape:window-y="-9"
     inkscape:window-maximized="1"
     inkscape:snap-bbox="true"
     inkscape:object-paths="true"
     inkscape:snap-intersection-paths="true"
     inkscape:snap-smooth-nodes="true"
     inkscape:snap-midpoints="true"
     inkscape:snap-object-midpoints="true" />
  <metadata
     id="metadata5">
    <rdf:RDF>
      <cc:Work
         rdf:about="">
        <dc:format>image/svg+xml</dc:format>
        <dc:type
           rdf:resource="http://purl.org/dc/dcmitype/StillImage" />
        <dc:title />
      </cc:Work>
    </rdf:RDF>
  </metadata>
  <g
     inkscape:label="Layer 1"
     inkscape:groupmode="layer"
     id="layer1"
     transform="translate(-69.898193,-193.17178)">
    <path
       style="color:#000000;font-style:normal;font-variant:normal;font-weight:normal;font-stretch:normal;font-size:medium;line-height:normal;font-family:sans-serif;font-variant-ligatures:normal;font-variant-position:normal;font-variant-caps:normal;font-variant-numeric:normal;font-variant-alternates:normal;font-variant-east-asian:normal;font-feature-settings:normal;font-variation-settings:normal;text-indent:0;text-align:start;text-decoration:none;text-decoration-line:none;text-decoration-style:solid;text-decoration-color:#000000;letter-spacing:normal;word-spacing:normal;text-transform:none;writing-mode:lr-tb;direction:ltr;text-orientation:mixed;dominant-baseline:auto;baseline-shift:baseline;text-anchor:start;white-space:normal;shape-padding:0;shape-margin:0;inline-size:0;clip-rule:nonzero;display:inline;overflow:visible;visibility:visible;opacity:1;isolation:auto;mix-blend-mode:normal;color-interpolation:sRGB;color-interpolation-filters:linearRGB;solid-color:#000000;solid-opacity:1;vector-effect:none;fill:#000000;fill-opacity:1;fill-rule:nonzero;stroke:none;stroke-width:3.77953;stroke-linecap:round;stroke-linejoin:round;stroke-miterlimit:4;stroke-dasharray:none;stroke-dashoffset:0;stroke-opacity:1;paint-order:fill markers stroke;color-rendering:auto;image-rendering:auto;shape-rendering:auto;text-rendering:auto;enable-background:accumulate;stop-color:#000000;stop-opacity:1"
       d="m 136.36719,46.800781 a 1.6896442,1.6896442 0 0 0 -1.6836,1.683594 v 6.310547 h 3.37305 v -4.621094 h 38.03906 v 38.039063 h -4.62109 v 3.380859 h 6.3125 a 1.6896442,1.6896442 0 0 0 1.68945,-1.689453 V 48.484375 a 1.6896442,1.6896442 0 0 0 -1.68945,-1.683594 z"
       transform="matrix(0.26458333,0,0,0.26458333,36.380481,180.78907)"
       id="rect888" />
    <path
       id="rect890"
       style="font-variation-settings:normal;opacity:1;vector-effect:none;fill:none;fill-opacity:1;stroke:#000000;stroke-width:0.894014;stroke-linecap:round;stroke-linejoin:round;stroke-miterlimit:4;stroke-dasharray:none;stroke-dashoffset:0;stroke-opacity:1;paint-order:fill markers stroke;stop-color:#000000;stop-opacity:1"
       d="M 70.3452,195.73465 H 81.303249 V 206.6927 H 70.3452 Z" />
    <g
       aria-label="@"
       id="text928"
       style="font-style:normal;font-variant:normal;font-weight:bold;font-stretch:normal;font-size:7.43749px;font-family:Montserrat;-inkscape-font-specification:'Montserrat Bold';opacity:1;vector-effect:none;fill:#000000;fill-opacity:1;stroke:none;stroke-width:2.09424;stroke-linecap:round;stroke-linejoin:round;stroke-miterlimit:4;stroke-dasharray:none;stroke-dashoffset:0;stroke-opacity:1;paint-order:fill markers stroke;stop-color:#000000;stop-opacity:1">
      <path
         d="m 75.835384,204.62004 q -0.803249,0 -1.457748,-0.26031 -0.654499,-0.25287 -1.130499,-0.714 -0.468562,-0.46112 -0.728874,-1.08587 -0.252874,-0.62475 -0.252874,-1.36106 0,-0.72888 0.252874,-1.34619 0.260312,-0.61731 0.736312,-1.07843 0.475999,-0.46113 1.137936,-0.714 0.661936,-0.25288 1.472623,-0.25288 0.780936,0 1.427998,0.24544 0.647062,0.238 1.115623,0.67681 0.468562,0.43881 0.721437,1.03381 0.252875,0.58756 0.252875,1.28669 0,0.66194 -0.193375,1.1305 -0.185937,0.46856 -0.528062,0.714 -0.342125,0.24543 -0.803249,0.24543 -0.505749,0 -0.803249,-0.2975 -0.297499,-0.2975 -0.297499,-0.87018 v -0.34213 l 0.02231,-0.40162 -0.06694,-1.07844 v -0.714 h 1.011498 v 2.40975 q 0,0.26775 0.104125,0.37187 0.104125,0.10413 0.252875,0.10413 0.171062,0 0.290062,-0.13388 0.126437,-0.13387 0.193375,-0.40906 0.06694,-0.28262 0.06694,-0.714 0,-0.56525 -0.200812,-1.03381 -0.193375,-0.46856 -0.565249,-0.81068 -0.364437,-0.34213 -0.877624,-0.52063 -0.50575,-0.18594 -1.123061,-0.18594 -0.617312,0 -1.130499,0.20082 -0.513186,0.20081 -0.877623,0.56525 -0.364438,0.357 -0.56525,0.84787 -0.193374,0.49087 -0.193374,1.071 0,0.595 0.193374,1.09331 0.193375,0.49087 0.550375,0.84787 0.364437,0.36444 0.870186,0.56525 0.505749,0.20082 1.123061,0.20082 0.356999,0 0.736311,-0.0818 0.379312,-0.0744 0.728874,-0.24543 l 0.238,0.68424 q -0.342124,0.17107 -0.803249,0.26032 -0.453687,0.0967 -0.899936,0.0967 z m -0.26775,-1.48006 q -0.475999,0 -0.870186,-0.23056 -0.38675,-0.238 -0.617312,-0.66194 -0.230562,-0.43137 -0.230562,-0.98918 0,-0.55781 0.223125,-0.98175 0.230562,-0.42394 0.617311,-0.6545 0.394187,-0.238 0.877624,-0.238 0.490875,0 0.840437,0.22313 0.349562,0.22312 0.535499,0.63962 0.185937,0.4165 0.185937,1.0115 0,0.58756 -0.1785,1.0115 -0.178499,0.42393 -0.528061,0.64706 -0.342125,0.22312 -0.855312,0.22312 z m 0.230562,-0.85531 q 0.26775,0 0.476,-0.119 0.215687,-0.12643 0.334687,-0.357 0.119,-0.23056 0.119,-0.55037 0,-0.32725 -0.119,-0.55038 -0.119,-0.22312 -0.334687,-0.34212 -0.20825,-0.119 -0.476,-0.119 -0.267749,0 -0.475999,0.119 -0.20825,0.119 -0.32725,0.34956 -0.118999,0.22313 -0.118999,0.54294 0,0.31981 0.118999,0.55037 0.119,0.22313 0.32725,0.34956 0.20825,0.12644 0.475999,0.12644 z"
         style="font-style:normal;font-variant:normal;font-weight:bold;font-stretch:normal;font-family:Montserrat;-inkscape-font-specification:'Montserrat Bold';fill:#000000;stroke:none;stroke-width:2.09424"
         id="path842" />
    </g>
    <path
       style="color:#000000;font-style:normal;font-variant:normal;font-weight:normal;font-stretch:normal;font-size:medium;line-height:normal;font-family:sans-serif;font-variant-ligatures:normal;font-variant-position:normal;font-variant-caps:normal;font-variant-numeric:normal;font-variant-alternates:normal;font-variant-east-asian:normal;font-feature-settings:normal;font-variation-settings:normal;text-indent:0;text-align:start;text-decoration:none;text-decoration-line:none;text-decoration-style:solid;text-decoration-color:#000000;letter-spacing:normal;word-spacing:normal;text-transform:none;writing-mode:lr-tb;direction:ltr;text-orientation:mixed;dominant-baseline:auto;baseline-shift:baseline;text-anchor:start;white-space:normal;shape-padding:0;shape-margin:0;inline-size:0;clip-rule:nonzero;display:inline;overflow:visible;visibility:visible;opacity:1;isolation:auto;mix-blend-mode:normal;color-interpolation:sRGB;color-interpolation-filters:linearRGB;solid-color:#000000;solid-opacity:1;vector-effect:none;fill:#000000;fill-opacity:1;fill-rule:nonzero;stroke:none;stroke-width:1;stroke-linecap:round;stroke-linejoin:round;stroke-miterlimit:4;stroke-dasharray:none;stroke-dashoffset:0;stroke-opacity:1;paint-order:fill markers stroke;color-rendering:auto;image-rendering:auto;shape-rendering:auto;text-rendering:auto;enable-background:accumulate;stop-color:#000000;stop-opacity:1"
       d="m 11.228823,172.76106 a 0.44705169,0.44705169 0 0 0 -0.445452,0.44545 v 1.66967 h 0.892453 v -1.22267 h 10.064501 v 10.06451 h -1.222664 v 0.89452 h 1.670183 a 0.44705169,0.44705169 0 0 0 0.447,-0.44701 v -10.95902 a 0.44705169,0.44705169 0 0 0 -0.447,-0.44545 z"
       id="path834" />
    <path
       id="path836"
       style="font-variation-settings:normal;opacity:1;vector-effect:none;fill:none;fill-opacity:1;stroke:#000000;stroke-width:0.894014;stroke-linecap:round;stroke-linejoin:round;stroke-miterlimit:4;stroke-dasharray:none;stroke-dashoffset:0;stroke-opacity:1;paint-order:fill markers stroke;stop-color:#000000;stop-opacity:1"
       d="M 9.1130571,175.32394 H 20.071106 v 10.95805 H 9.1130571 Z" />
    <text
       xml:space="preserve"
       style="font-style:normal;font-variant:normal;font-weight:bold;font-stretch:normal;font-size:7.43749px;font-family:Montserrat;-inkscape-font-specification:'Montserrat Bold';opacity:1;vector-effect:none;fill:#000000;fill-opacity:1;stroke:none;stroke-width:2.09424;stroke-linecap:round;stroke-linejoin:round;stroke-miterlimit:4;stroke-dasharray:none;stroke-dashoffset:0;stroke-opacity:1;paint-order:fill markers stroke;stop-color:#000000;stop-opacity:1"
       x="10.743184"
       y="182.6772"
       id="text840"><tspan
         sodipodi:role="line"
         id="tspan838"
         x="10.743184"
         y="182.6772"
         style="font-style:normal;font-variant:normal;font-weight:bold;font-stretch:normal;font-family:Montserrat;-inkscape-font-specification:'Montserrat Bold';fill:#000000;stroke:none;stroke-width:2.09424">@</tspan></text>
  </g>
</svg>
