<?xml version="1.0" encoding="UTF-8" standalone="no"?>
<svg xmlns:dc="http://purl.org/dc/elements/1.1/" xmlns:cc="http://creativecommons.org/ns#" xmlns:rdf="http://www.w3.org/1999/02/22-rdf-syntax-ns#" xmlns:svg="http://www.w3.org/2000/svg" xmlns="http://www.w3.org/2000/svg" version="1.1" id="loader" width="73.73632" height="73.736328">
  <metadata
     id="metadata23">
    <rdf:RDF>
      <cc:Work
         rdf:about="">
        <dc:format>image/svg+xml</dc:format>
        <dc:type
           rdf:resource="http://purl.org/dc/dcmitype/StillImage" />
        <dc:title></dc:title>
      </cc:Work>
    </rdf:RDF>
  </metadata>
  <defs
     id="defs21" />
  <g
     id="loader-g"
     transform="translate(-1010.2322,2007.5799)">
    <rect
       style="fill:#00e475;fill-opacity:1;stroke:none;stroke-width:0.256675;stroke-linecap:square;stroke-linejoin:round;paint-order:fill markers stroke;stop-color:#000000"
       id="green-rec"
       width="38.557995"
       height="61.473907"
       x="1028.1321"
       y="-2000.235" />
    <path
       id="white-mask"
       style="fill:#ffffff;stroke:none;stroke-width:0.260835;stroke-linecap:square;stroke-linejoin:round;paint-order:fill markers stroke;stop-color:#000000"
       d="m 119.4043,-127.30664 v 73.736328 h 73.73632 v -73.736328 z m 36.86523,12.56641 a 0.91394313,0.91013889 0 0 1 0.79492,0.45507 l 4.8711,8.40235 4.87109,8.402341 a 0.91394313,0.91013889 0 0 1 -0.79102,1.365235 h -7.10742 l 3.02735,5.220703 4.87109,8.402343 a 0.91394313,0.91013889 0 0 1 -0.79102,1.365235 h -7.10742 l 3.02735,5.222656 4.87109,8.402344 a 0.91394317,0.91013893 0 0 1 -0.79102,1.365234 h -9.74218 -9.74414 a 0.91394317,0.91013893 0 0 1 -0.79102,-1.365234 l 4.8711,-8.402344 3.02734,-5.222656 h -7.10742 a 0.91394313,0.91013889 0 0 1 -0.79102,-1.365235 l 4.8711,-8.402343 3.02734,-5.220703 h -7.10742 a 0.91394313,0.91013889 0 0 1 -0.79102,-1.365235 l 4.8711,-8.402341 4.87109,-8.40235 a 0.91394313,0.91013889 0 0 1 0.78906,-0.45507 z"
       transform="translate(890.82791,-1880.2733)" />
    <path
       id="loader-tree-border"
       style="color:#000000;font-style:normal;font-variant:normal;font-weight:normal;font-stretch:normal;font-size:medium;line-height:normal;font-family:sans-serif;font-variant-ligatures:normal;font-variant-position:normal;font-variant-caps:normal;font-variant-numeric:normal;font-variant-alternates:normal;font-variant-east-asian:normal;font-feature-settings:normal;font-variation-settings:normal;text-indent:0;text-align:start;text-decoration:none;text-decoration-line:none;text-decoration-style:solid;text-decoration-color:#000000;letter-spacing:normal;word-spacing:normal;text-transform:none;writing-mode:lr-tb;direction:ltr;text-orientation:mixed;dominant-baseline:auto;baseline-shift:baseline;text-anchor:start;white-space:normal;shape-padding:0;shape-margin:0;inline-size:0;clip-rule:nonzero;display:inline;overflow:visible;visibility:visible;isolation:auto;mix-blend-mode:normal;color-interpolation:sRGB;color-interpolation-filters:linearRGB;solid-color:#000000;solid-opacity:1;vector-effect:none;fill:none;fill-opacity:1;fill-rule:nonzero;stroke:#000000;stroke-width:0.880518;stroke-linecap:round;stroke-linejoin:round;stroke-miterlimit:4;stroke-dasharray:none;stroke-dashoffset:0;stroke-opacity:1;paint-order:fill markers stroke;color-rendering:auto;image-rendering:auto;shape-rendering:auto;text-rendering:auto;enable-background:accumulate;stop-color:#000000"
       d="m 1047.0982,-1995.0134 a 0.91394313,0.91013889 0 0 0 -0.789,0.455 l -4.8712,8.4025 -4.8715,8.4023 a 0.91394313,0.91013889 0 0 0 0.7912,1.3651 h 7.1075 l -3.0272,5.2216 -4.8715,8.4021 a 0.91394313,0.91013889 0 0 0 0.7912,1.3653 h 7.1075 l -3.0272,5.2215 -4.8715,8.4023 a 0.91394317,0.91013893 0 0 0 0.7912,1.3651 h 9.7431 9.7428 a 0.91394317,0.91013893 0 0 0 0.7914,-1.3651 l -4.8714,-8.4023 -3.0273,-5.2215 h 7.1073 a 0.91394313,0.91013889 0 0 0 0.7914,-1.3653 l -4.8714,-8.4021 -3.0273,-5.2216 h 7.1073 a 0.91394313,0.91013889 0 0 0 0.7914,-1.3651 l -4.8714,-8.4023 -4.8716,-8.4025 a 0.91394313,0.91013889 0 0 0 -0.7938,-0.455 z" />
  </g>
</svg>
