<?xml version="1.0" encoding="UTF-8" standalone="no"?>
<svg
   xmlns:dc="http://purl.org/dc/elements/1.1/"
   xmlns:cc="http://creativecommons.org/ns#"
   xmlns:rdf="http://www.w3.org/1999/02/22-rdf-syntax-ns#"
   xmlns:svg="http://www.w3.org/2000/svg"
   xmlns="http://www.w3.org/2000/svg"
   xmlns:sodipodi="http://sodipodi.sourceforge.net/DTD/sodipodi-0.dtd"
   xmlns:inkscape="http://www.inkscape.org/namespaces/inkscape"
   version="1.1"
   id="svg17"
   sodipodi:docname="logo.svg"
   inkscape:version="1.0.2-2 (e86c870879, 2021-01-15)"
   width="122.95035"
   height="50.062119">
  <metadata
     id="metadata23">
    <rdf:RDF>
      <cc:Work
         rdf:about="">
        <dc:format>image/svg+xml</dc:format>
        <dc:type
           rdf:resource="http://purl.org/dc/dcmitype/StillImage" />
        <dc:title />
      </cc:Work>
    </rdf:RDF>
  </metadata>
  <defs
     id="defs21" />
  <sodipodi:namedview
     pagecolor="#505050"
     bordercolor="#ffffff"
     borderopacity="1"
     objecttolerance="10"
     gridtolerance="10"
     guidetolerance="10"
     inkscape:pageopacity="0"
     inkscape:pageshadow="2"
     inkscape:window-width="1920"
     inkscape:window-height="1001"
     id="namedview19"
     showgrid="false"
     inkscape:zoom="4.2533333"
     inkscape:cx="150.0007"
     inkscape:cy="75.002959"
     inkscape:window-x="-9"
     inkscape:window-y="-9"
     inkscape:window-maximized="1"
     inkscape:current-layer="layer1"
     inkscape:document-rotation="0" />
  <link
     rel="stylesheet"
     href="logo.css"
     type="text/css" />
  <g
     inkscape:label="Layer 1"
     inkscape:groupmode="layer"
     id="layer1"
     transform="translate(-890.82791,1880.2733)">
    <rect
       style="fill:#ffffff;fill-opacity:0;stroke:none;stroke-width:1;stroke-linecap:round;stroke-linejoin:round;stroke-miterlimit:4;stroke-dasharray:none;stroke-dashoffset:0;stroke-opacity:1;paint-order:normal"
       id="rect1114"
       width="1263.6179"
       height="362.85715"
       x="-135.2942"
       y="-317.23273"
       ry="0" />
    <path
       class="test"
       id="path1167"
       style="color:#000000;font-style:normal;font-variant:normal;font-weight:bold;font-stretch:normal;font-size:65.4359px;line-height:normal;font-family:Montserrat;-inkscape-font-specification:'Montserrat Bold';font-variant-ligatures:normal;font-variant-position:normal;font-variant-caps:normal;font-variant-numeric:normal;font-variant-alternates:normal;font-variant-east-asian:normal;font-feature-settings:normal;font-variation-settings:normal;text-indent:0;text-align:start;text-decoration:none;text-decoration-line:none;text-decoration-style:solid;text-decoration-color:#000000;letter-spacing:14.8322px;word-spacing:normal;text-transform:none;writing-mode:lr-tb;direction:ltr;text-orientation:mixed;dominant-baseline:auto;baseline-shift:baseline;text-anchor:start;white-space:normal;shape-padding:0;shape-margin:0;inline-size:0;clip-rule:nonzero;display:inline;overflow:visible;visibility:visible;isolation:auto;mix-blend-mode:normal;color-interpolation:sRGB;color-interpolation-filters:linearRGB;solid-color:#000000;solid-opacity:1;vector-effect:none;fill:#6ebadc;fill-opacity:1;fill-rule:nonzero;stroke:#000000;stroke-width:0.880518;stroke-linecap:round;stroke-linejoin:round;stroke-miterlimit:4;stroke-dasharray:none;stroke-dashoffset:0;stroke-opacity:1;paint-order:fill markers stroke;color-rendering:auto;image-rendering:auto;shape-rendering:auto;text-rendering:auto;enable-background:accumulate;stop-color:#000000"
       d="m 892.17872,-1879.2542 a 0.91059993,0.91350292 0 0 0 -0.91055,0.9134 v 3.1663 a 0.91059993,0.91350292 0 0 0 0.91055,0.9135 h 4.41105 v 12.7084 a 0.91059993,0.91350292 0 0 0 0.91054,0.9135 h 3.84902 a 0.91059993,0.91350292 0 0 0 0.91036,-0.9135 v -12.7084 h 4.41101 a 0.91059993,0.91350292 0 0 0 0.91054,-0.9135 v -3.1663 a 0.91059993,0.91350292 0 0 0 -0.91054,-0.9134 z" />
    <path
       id="path1173"
       style="color:#000000;font-style:normal;font-variant:normal;font-weight:bold;font-stretch:normal;font-size:65.4359px;line-height:normal;font-family:Montserrat;-inkscape-font-specification:'Montserrat Bold';font-variant-ligatures:normal;font-variant-position:normal;font-variant-caps:normal;font-variant-numeric:normal;font-variant-alternates:normal;font-variant-east-asian:normal;font-feature-settings:normal;font-variation-settings:normal;text-indent:0;text-align:start;text-decoration:none;text-decoration-line:none;text-decoration-style:solid;text-decoration-color:#000000;letter-spacing:14.8322px;word-spacing:normal;text-transform:none;writing-mode:lr-tb;direction:ltr;text-orientation:mixed;dominant-baseline:auto;baseline-shift:baseline;text-anchor:start;white-space:normal;shape-padding:0;shape-margin:0;inline-size:0;clip-rule:nonzero;display:inline;overflow:visible;visibility:visible;isolation:auto;mix-blend-mode:normal;color-interpolation:sRGB;color-interpolation-filters:linearRGB;solid-color:#000000;solid-opacity:1;vector-effect:none;fill:#6ebadc;fill-opacity:1;fill-rule:nonzero;stroke:#000000;stroke-width:0.880518;stroke-linecap:round;stroke-linejoin:round;stroke-miterlimit:4;stroke-dasharray:none;stroke-dashoffset:0;stroke-opacity:1;paint-order:fill markers stroke;color-rendering:auto;image-rendering:auto;shape-rendering:auto;text-rendering:auto;enable-background:accumulate;stop-color:#000000"
       d="m 944.7101,-1879.2542 a 0.91059993,0.91350292 0 0 0 -0.91056,0.9134 v 16.7882 a 0.91059993,0.91350292 0 0 0 0.91056,0.9135 h 12.18793 a 0.91059993,0.91350292 0 0 0 0.91055,-0.9135 v -3.1663 a 0.91059993,0.91350292 0 0 0 -0.91055,-0.9133 h -7.42854 v -12.7086 a 0.91059993,0.91350292 0 0 0 -0.91037,-0.9134 z" />
    <path
       id="path1179"
       style="color:#000000;font-style:normal;font-variant:normal;font-weight:bold;font-stretch:normal;font-size:65.4359px;line-height:normal;font-family:Montserrat;-inkscape-font-specification:'Montserrat Bold';font-variant-ligatures:normal;font-variant-position:normal;font-variant-caps:normal;font-variant-numeric:normal;font-variant-alternates:normal;font-variant-east-asian:normal;font-feature-settings:normal;font-variation-settings:normal;text-indent:0;text-align:start;text-decoration:none;text-decoration-line:none;text-decoration-style:solid;text-decoration-color:#000000;letter-spacing:14.8322px;word-spacing:normal;text-transform:none;writing-mode:lr-tb;direction:ltr;text-orientation:mixed;dominant-baseline:auto;baseline-shift:baseline;text-anchor:start;white-space:normal;shape-padding:0;shape-margin:0;inline-size:0;clip-rule:nonzero;display:inline;overflow:visible;visibility:visible;isolation:auto;mix-blend-mode:normal;color-interpolation:sRGB;color-interpolation-filters:linearRGB;solid-color:#000000;solid-opacity:1;vector-effect:none;fill:#f5dc82;fill-opacity:1;fill-rule:nonzero;stroke:#000000;stroke-width:0.880518;stroke-linecap:round;stroke-linejoin:round;stroke-miterlimit:4;stroke-dasharray:none;stroke-dashoffset:0;stroke-opacity:1;paint-order:fill markers stroke;color-rendering:auto;image-rendering:auto;shape-rendering:auto;text-rendering:auto;enable-background:accumulate;stop-color:#000000"
       d="m 973.52356,-1879.8293 c -1.65805,0 -3.0918,0.2502 -4.29263,0.7999 0,2e-4 -10e-4,5e-4 -10e-4,8e-4 -1.15467,0.5203 -2.08677,1.2644 -2.71527,2.2257 a 0.91059993,0.91350292 0 0 0 -0.002,0 c -0.59924,0.9263 -0.90772,1.9907 -0.90772,3.1114 0,1.0142 0.19796,1.9259 0.65515,2.6811 a 0.91059993,0.91350292 0 0 0 0.01,0.015 c 0.43452,0.6865 1.00766,1.2571 1.69293,1.6798 0.63456,0.3915 1.32693,0.7089 2.07065,0.9533 a 0.91059993,0.91350292 0 0 0 0.006,0 c 0.71898,0.2309 1.43095,0.4294 2.13672,0.5951 a 0.91059993,0.91350292 0 0 0 0.0243,0.01 c 0.67318,0.139 1.2795,0.2925 1.81676,0.4582 a 0.91059993,0.91350292 0 0 0 0.022,0.01 c 0.48768,0.1368 0.83737,0.312 1.06413,0.4889 a 0.91059993,0.91350292 0 0 0 0.0213,0.016 c 0.14417,0.1058 0.15019,0.1076 0.15019,0.3176 0,0.1591 -0.0268,0.2343 -0.12667,0.3566 -0.0743,0.091 -0.26315,0.2333 -0.6224,0.3561 -0.32348,0.1002 -0.84933,0.1728 -1.54782,0.1728 -0.89802,0 -1.78746,-0.1433 -2.68045,-0.4332 -0.89242,-0.3109 -1.6488,-0.6953 -2.27769,-1.1468 a 0.91059993,0.91350292 0 0 0 -1.36073,0.369 l -1.30673,2.9257 a 0.91059993,0.91350292 0 0 0 0.2746,1.0968 c 0.86058,0.6654 1.9441,1.1756 3.24018,1.5663 a 0.91059993,0.91350292 0 0 0 0.0106,0 c 1.30407,0.3761 2.66631,0.5631 4.07675,0.5631 1.67521,0 3.11162,-0.2501 4.3028,-0.8049 h 10e-4 c 1.16113,-0.5338 2.09526,-1.2701 2.72523,-2.2144 0.61664,-0.9242 0.93746,-1.9859 0.93746,-3.0985 0,-1.003 -0.21117,-1.9124 -0.68507,-2.6644 -0.41961,-0.6901 -0.98741,-1.2641 -1.67298,-1.687 -0.64133,-0.3957 -1.348,-0.7064 -2.11206,-0.9348 l -0.002,-8e-4 c -0.69948,-0.2134 -1.40718,-0.4024 -2.12261,-0.5666 h -0.004 c -0.66854,-0.157 -1.28106,-0.3134 -1.8352,-0.4688 -0.48755,-0.1367 -0.83768,-0.3071 -1.06846,-0.4737 -0.15138,-0.119 -0.16638,-0.1447 -0.16638,-0.3248 0,-0.1967 0.0369,-0.2929 0.12309,-0.4067 a 0.91059993,0.91350292 0 0 0 0.0149,-0.02 c 0.0637,-0.089 0.23288,-0.2365 0.5968,-0.3712 0.3303,-0.1222 0.84138,-0.2075 1.51432,-0.2075 0.65346,0 1.32765,0.098 2.02944,0.3004 a 0.91059993,0.91350292 0 0 0 0.0163,0 c 0.69179,0.1852 1.39406,0.4803 2.10925,0.8929 a 0.91059993,0.91350292 0 0 0 1.29806,-0.4498 l 1.18797,-2.9499 a 0.91059993,0.91350292 0 0 0 -0.35496,-1.1125 c -0.87045,-0.5559 -1.86324,-0.9601 -2.96125,-1.2202 -1.08251,-0.2724 -2.18496,-0.4097 -3.30116,-0.4097 z" />
    <path
       id="path1185"
       style="color:#000000;font-style:normal;font-variant:normal;font-weight:bold;font-stretch:normal;font-size:65.4359px;line-height:normal;font-family:Montserrat;-inkscape-font-specification:'Montserrat Bold';font-variant-ligatures:normal;font-variant-position:normal;font-variant-caps:normal;font-variant-numeric:normal;font-variant-alternates:normal;font-variant-east-asian:normal;font-feature-settings:normal;font-variation-settings:normal;text-indent:0;text-align:start;text-decoration:none;text-decoration-line:none;text-decoration-style:solid;text-decoration-color:#000000;letter-spacing:14.8322px;word-spacing:normal;text-transform:none;writing-mode:lr-tb;direction:ltr;text-orientation:mixed;dominant-baseline:auto;baseline-shift:baseline;text-anchor:start;white-space:normal;shape-padding:0;shape-margin:0;inline-size:0;clip-rule:nonzero;display:inline;overflow:visible;visibility:visible;isolation:auto;mix-blend-mode:normal;color-interpolation:sRGB;color-interpolation-filters:linearRGB;solid-color:#000000;solid-opacity:1;vector-effect:none;fill:#6ebadc;fill-opacity:1;fill-rule:nonzero;stroke:#000000;stroke-width:0.880518;stroke-linecap:round;stroke-linejoin:round;stroke-miterlimit:4;stroke-dasharray:none;stroke-dashoffset:0;stroke-opacity:1;paint-order:fill markers stroke;color-rendering:auto;image-rendering:auto;shape-rendering:auto;text-rendering:auto;enable-background:accumulate;stop-color:#000000"
       d="m 989.29589,-1879.5418 a 0.91059993,0.91350292 0 0 0 -0.91036,0.9135 v 9.4009 c 0,2.6272 0.73402,4.8056 2.26414,6.3318 1.52134,1.5174 3.64706,2.2565 6.17716,2.2565 2.53008,0 4.65657,-0.7391 6.17787,-2.2565 1.5301,-1.5262 2.2644,-3.7046 2.2644,-6.3318 v -9.4009 a 0.91059993,0.91350292 0 0 0 -0.9106,-0.9135 h -3.8014 a 0.91059993,0.91350292 0 0 0 -0.91055,0.9135 v 9.2576 c 0,1.4747 -0.3162,2.3827 -0.73194,2.833 -0.46384,0.5025 -1.07303,0.762 -2.06351,0.762 -0.99048,0 -1.60042,-0.2595 -2.06425,-0.762 -0.41575,-0.4503 -0.73213,-1.3583 -0.73213,-2.833 v -9.2576 a 0.91059993,0.91350292 0 0 0 -0.91037,-0.9135 z" />
    <path
       id="path1191"
       style="color:#000000;font-style:normal;font-variant:normal;font-weight:bold;font-stretch:normal;font-size:65.4359px;line-height:normal;font-family:Montserrat;-inkscape-font-specification:'Montserrat Bold';font-variant-ligatures:normal;font-variant-position:normal;font-variant-caps:normal;font-variant-numeric:normal;font-variant-alternates:normal;font-variant-east-asian:normal;font-feature-settings:normal;font-variation-settings:normal;text-indent:0;text-align:start;text-decoration:none;text-decoration-line:none;text-decoration-style:solid;text-decoration-color:#000000;letter-spacing:14.8322px;word-spacing:normal;text-transform:none;writing-mode:lr-tb;direction:ltr;text-orientation:mixed;dominant-baseline:auto;baseline-shift:baseline;text-anchor:start;white-space:normal;shape-padding:0;shape-margin:0;inline-size:0;clip-rule:nonzero;display:inline;overflow:visible;visibility:visible;isolation:auto;mix-blend-mode:normal;color-interpolation:sRGB;color-interpolation-filters:linearRGB;solid-color:#000000;solid-opacity:1;vector-effect:none;fill:#ff9500;fill-opacity:1;fill-rule:nonzero;stroke:#000000;stroke-width:0.880518;stroke-linecap:round;stroke-linejoin:round;stroke-miterlimit:4;stroke-dasharray:none;stroke-dashoffset:0;stroke-opacity:1;paint-order:fill markers stroke;color-rendering:auto;image-rendering:auto;shape-rendering:auto;text-rendering:auto;enable-background:accumulate;stop-color:#000000"
       d="m 892.17872,-1849.2758 a 0.91059993,0.91350292 0 0 0 -0.91055,0.9135 v 3.1655 a 0.91059993,0.91350292 0 0 0 0.91055,0.9135 h 4.41105 v 12.7084 a 0.91059993,0.91350292 0 0 0 0.91054,0.9135 h 3.84902 a 0.91059993,0.91350292 0 0 0 0.91036,-0.9135 v -12.7084 h 4.41101 a 0.91059993,0.91350292 0 0 0 0.91054,-0.9135 v -3.1655 a 0.91059993,0.91350292 0 0 0 -0.91054,-0.9135 z" />
    <path
       id="path1197"
       style="color:#000000;font-style:normal;font-variant:normal;font-weight:bold;font-stretch:normal;font-size:65.4359px;line-height:normal;font-family:Montserrat;-inkscape-font-specification:'Montserrat Bold';font-variant-ligatures:normal;font-variant-position:normal;font-variant-caps:normal;font-variant-numeric:normal;font-variant-alternates:normal;font-variant-east-asian:normal;font-feature-settings:normal;font-variation-settings:normal;text-indent:0;text-align:start;text-decoration:none;text-decoration-line:none;text-decoration-style:solid;text-decoration-color:#000000;letter-spacing:14.8322px;word-spacing:normal;text-transform:none;writing-mode:lr-tb;direction:ltr;text-orientation:mixed;dominant-baseline:auto;baseline-shift:baseline;text-anchor:start;white-space:normal;shape-padding:0;shape-margin:0;inline-size:0;clip-rule:nonzero;display:inline;overflow:visible;visibility:visible;isolation:auto;mix-blend-mode:normal;color-interpolation:sRGB;color-interpolation-filters:linearRGB;solid-color:#000000;solid-opacity:1;vector-effect:none;fill:#6ebadc;fill-opacity:1;fill-rule:nonzero;stroke:#000000;stroke-width:0.880518;stroke-linecap:round;stroke-linejoin:round;stroke-miterlimit:4;stroke-dasharray:none;stroke-dashoffset:0;stroke-opacity:1;paint-order:fill markers stroke;color-rendering:auto;image-rendering:auto;shape-rendering:auto;text-rendering:auto;enable-background:accumulate;stop-color:#000000"
       d="m 944.7101,-1849.2758 a 0.91059993,0.91350292 0 0 0 -0.91056,0.9135 v 16.7874 a 0.91059993,0.91350292 0 0 0 0.91056,0.9135 h 3.82475 a 0.91059993,0.91350292 0 0 0 0.91054,-0.9135 v -3.8726 l 1.26325,-1.3317 4.67432,5.7796 a 0.91059993,0.91350292 0 0 0 0.70691,0.3382 h 4.49081 a 0.91059993,0.91350292 0 0 0 0.71557,-1.4778 l -6.80973,-8.6961 6.35878,-6.9075 a 0.91059993,0.91350292 0 0 0 -0.66869,-1.533 h -4.27664 a 0.91059993,0.91350292 0 0 0 -0.66212,0.2863 l -5.79246,6.1611 v -5.5339 a 0.91059993,0.91350292 0 0 0 -0.91054,-0.9135 z" />
    <path
       id="path1203"
       style="color:#000000;font-style:normal;font-variant:normal;font-weight:bold;font-stretch:normal;font-size:65.4359px;line-height:normal;font-family:Montserrat;-inkscape-font-specification:'Montserrat Bold';font-variant-ligatures:normal;font-variant-position:normal;font-variant-caps:normal;font-variant-numeric:normal;font-variant-alternates:normal;font-variant-east-asian:normal;font-feature-settings:normal;font-variation-settings:normal;text-indent:0;text-align:start;text-decoration:none;text-decoration-line:none;text-decoration-style:solid;text-decoration-color:#000000;letter-spacing:14.8322px;word-spacing:normal;text-transform:none;writing-mode:lr-tb;direction:ltr;text-orientation:mixed;dominant-baseline:auto;baseline-shift:baseline;text-anchor:start;white-space:normal;shape-padding:0;shape-margin:0;inline-size:0;clip-rule:nonzero;display:inline;overflow:visible;visibility:visible;isolation:auto;mix-blend-mode:normal;color-interpolation:sRGB;color-interpolation-filters:linearRGB;solid-color:#000000;solid-opacity:1;vector-effect:none;fill:#6ebadc;fill-opacity:1;fill-rule:nonzero;stroke:#000000;stroke-width:0.880518;stroke-linecap:round;stroke-linejoin:round;stroke-miterlimit:4;stroke-dasharray:none;stroke-dashoffset:0;stroke-opacity:1;paint-order:fill markers stroke;color-rendering:auto;image-rendering:auto;shape-rendering:auto;text-rendering:auto;enable-background:accumulate;stop-color:#000000"
       d="m 1005.9357,-1849.8518 c -1.658,0 -3.092,0.2502 -4.2928,0.7999 0,2e-4 0,5e-4 0,8e-4 -1.1546,0.5203 -2.08673,1.2644 -2.71522,2.2257 a 0.91059993,0.91350292 0 0 0 -0.002,0 c -0.59923,0.9262 -0.90753,1.9907 -0.90753,3.1114 0,1.0142 0.19796,1.9251 0.65515,2.6803 a 0.91059993,0.91350292 0 0 0 0.01,0.016 c 0.43453,0.6866 1.00767,1.2564 1.6929,1.6791 0.6346,0.3915 1.327,0.7089 2.0707,0.9533 a 0.91059993,0.91350292 0 0 0 0.01,0 c 0.7189,0.2309 1.4311,0.4294 2.1369,0.5951 a 0.91059993,0.91350292 0 0 0 0.024,0 c 0.6731,0.139 1.2795,0.2925 1.8167,0.4582 a 0.91059993,0.91350292 0 0 0 0.022,0.01 c 0.4876,0.1367 0.8373,0.3119 1.0641,0.4888 a 0.91059993,0.91350292 0 0 0 0.021,0.016 c 0.1441,0.1059 0.1501,0.1082 0.1501,0.3181 0,0.1592 -0.027,0.2345 -0.1266,0.3569 -0.074,0.091 -0.2632,0.2325 -0.6224,0.3553 -0.3235,0.1002 -0.8494,0.1728 -1.5478,0.1728 -0.8981,0 -1.7875,-0.1433 -2.6805,-0.4331 -0.8924,-0.311 -1.6488,-0.6954 -2.2777,-1.1469 a 0.91059993,0.91350292 0 0 0 -1.36071,0.369 l -1.30672,2.9257 a 0.91059993,0.91350292 0 0 0 0.27459,1.0976 c 0.86059,0.6654 1.94409,1.175 3.24014,1.5657 a 0.91059993,0.91350292 0 0 0 0.011,0 c 1.304,0.3762 2.6663,0.5633 4.0767,0.5633 1.6743,0 3.1099,-0.2494 4.3007,-0.8036 1.1626,-0.5339 2.0974,-1.2708 2.7279,-2.2158 0.6167,-0.9243 0.9377,-1.9858 0.9377,-3.0984 0,-1.0024 -0.211,-1.9115 -0.6843,-2.6633 -0.4197,-0.6904 -0.9879,-1.2652 -1.6738,-1.6883 -0.643,-0.3967 -1.3513,-0.7077 -2.1177,-0.9363 -0.6984,-0.213 -1.4047,-0.4019 -2.119,-0.5659 v -7e-4 c -0.6687,-0.157 -1.2811,-0.3134 -1.8353,-0.4688 -0.4874,-0.1367 -0.8376,-0.3066 -1.0684,-0.4732 -0.1529,-0.1201 -0.1664,-0.1453 -0.1664,-0.3261 0,-0.1967 0.037,-0.2928 0.1231,-0.4067 a 0.91059993,0.91350292 0 0 0 0.015,-0.02 c 0.064,-0.089 0.2328,-0.2363 0.5968,-0.371 0.3303,-0.1222 0.8415,-0.2077 1.5145,-0.2077 0.6534,0 1.3276,0.098 2.0294,0.3004 a 0.91059993,0.91350292 0 0 0 0.016,0 c 0.6918,0.1852 1.394,0.4801 2.1092,0.8927 a 0.91059993,0.91350292 0 0 0 1.2981,-0.4496 l 1.188,-2.9501 a 0.91059993,0.91350292 0 0 0 -0.355,-1.1125 c -0.8689,-0.5549 -1.8599,-0.9587 -2.9556,-1.2189 -1.0843,-0.2733 -2.1887,-0.411 -3.3068,-0.411 z" />
    <path
       id="path1161"
       style="color:#000000;font-style:normal;font-variant:normal;font-weight:normal;font-stretch:normal;font-size:medium;line-height:normal;font-family:sans-serif;font-variant-ligatures:normal;font-variant-position:normal;font-variant-caps:normal;font-variant-numeric:normal;font-variant-alternates:normal;font-variant-east-asian:normal;font-feature-settings:normal;font-variation-settings:normal;text-indent:0;text-align:start;text-decoration:none;text-decoration-line:none;text-decoration-style:solid;text-decoration-color:#000000;letter-spacing:normal;word-spacing:normal;text-transform:none;writing-mode:lr-tb;direction:ltr;text-orientation:mixed;dominant-baseline:auto;baseline-shift:baseline;text-anchor:start;white-space:normal;shape-padding:0;shape-margin:0;inline-size:0;clip-rule:nonzero;display:inline;overflow:visible;visibility:visible;isolation:auto;mix-blend-mode:normal;color-interpolation:sRGB;color-interpolation-filters:linearRGB;solid-color:#000000;solid-opacity:1;vector-effect:none;fill:#00e475;fill-opacity:1;fill-rule:nonzero;stroke:#000000;stroke-width:0.880518;stroke-linecap:round;stroke-linejoin:round;stroke-miterlimit:4;stroke-dasharray:none;stroke-dashoffset:0;stroke-opacity:1;paint-order:fill markers stroke;color-rendering:auto;image-rendering:auto;shape-rendering:auto;text-rendering:auto;enable-background:accumulate;stop-color:#000000"
       d="m 925.68786,-1879.2542 a 0.91394313,0.91013889 0 0 0 -0.78897,0.455 l -4.87119,8.4025 -4.87156,8.4023 a 0.91394313,0.91013889 0 0 0 0.79122,1.3651 h 7.10748 l -3.02714,5.2216 -4.87156,8.4021 a 0.91394313,0.91013889 0 0 0 0.79122,1.3653 h 7.10748 l -3.02714,5.2215 -4.87156,8.4023 a 0.91394317,0.91013893 0 0 0 0.79122,1.3651 h 9.74313 9.74274 a 0.91394317,0.91013893 0 0 0 0.79142,-1.3651 l -4.87138,-8.4023 -3.02732,-5.2215 h 7.10728 a 0.91394313,0.91013889 0 0 0 0.79142,-1.3653 l -4.87138,-8.4021 -3.02732,-5.2216 h 7.10728 a 0.91394313,0.91013889 0 0 0 0.79142,-1.3651 l -4.87138,-8.4023 -4.87155,-8.4025 a 0.91394313,0.91013889 0 0 0 -0.79386,-0.455 z" />
    <path
       id="path1215"
       style="color:#000000;font-style:normal;font-variant:normal;font-weight:normal;font-stretch:normal;font-size:medium;line-height:normal;font-family:sans-serif;font-variant-ligatures:normal;font-variant-position:normal;font-variant-caps:normal;font-variant-numeric:normal;font-variant-alternates:normal;font-variant-east-asian:normal;font-feature-settings:normal;font-variation-settings:normal;text-indent:0;text-align:start;text-decoration:none;text-decoration-line:none;text-decoration-style:solid;text-decoration-color:#000000;letter-spacing:normal;word-spacing:normal;text-transform:none;writing-mode:lr-tb;direction:ltr;text-orientation:mixed;dominant-baseline:auto;baseline-shift:baseline;text-anchor:start;white-space:normal;shape-padding:0;shape-margin:0;inline-size:0;clip-rule:nonzero;display:inline;overflow:visible;visibility:visible;isolation:auto;mix-blend-mode:normal;color-interpolation:sRGB;color-interpolation-filters:linearRGB;solid-color:#000000;solid-opacity:1;vector-effect:none;fill:#00e475;fill-opacity:1;fill-rule:nonzero;stroke:#000000;stroke-width:0.880518;stroke-linecap:round;stroke-linejoin:round;stroke-miterlimit:4;stroke-dasharray:none;stroke-dashoffset:0;stroke-opacity:1;paint-order:fill markers stroke;color-rendering:auto;image-rendering:auto;shape-rendering:auto;text-rendering:auto;enable-background:accumulate;stop-color:#000000"
       d="m 979.57401,-1849.2863 a 0.91394317,0.91013893 0 0 0 -0.78896,0.455 l -4.87119,8.4025 -4.87156,8.4023 a 0.91394317,0.91013893 0 0 0 0.79142,1.3651 h 9.74293 9.74274 a 0.91394317,0.91013893 0 0 0 0.79141,-1.3651 l -4.87118,-8.4023 -4.87156,-8.4025 a 0.91394317,0.91013893 0 0 0 -0.79405,-0.455 z" />
    <text
       xml:space="preserve"
       style="font-style:normal;font-variant:normal;font-weight:bold;font-stretch:normal;font-size:67.6047px;font-family:'Cooper Black';-inkscape-font-specification:'Cooper Black, Bold';fill:#ffffff;fill-opacity:1;stroke:none;stroke-width:0.999999;stroke-linecap:round;stroke-linejoin:round;stroke-miterlimit:4;stroke-dasharray:none;stroke-dashoffset:0;stroke-opacity:1;paint-order:normal"
       x="-1019.2723"
       y="-301.48862"
       id="text1118"><tspan
         sodipodi:role="line"
         id="tspan1116"
         x="-1019.2723"
         y="-301.48862"
         style="font-style:normal;font-variant:normal;font-weight:bold;font-stretch:normal;font-family:'Cooper Black';-inkscape-font-specification:'Cooper Black, Bold';stroke:none;stroke-width:0.999999" /></text>
    <g
       id="g1438"
       transform="translate(1211.3523)" />
    <g
       id="g1452"
       transform="translate(1237.0546)" />
  </g>
</svg>
