<?xml version="1.0" encoding="UTF-8" standalone="no"?>
<svg
   xmlns:dc="http://purl.org/dc/elements/1.1/"
   xmlns:cc="http://creativecommons.org/ns#"
   xmlns:rdf="http://www.w3.org/1999/02/22-rdf-syntax-ns#"
   xmlns:svg="http://www.w3.org/2000/svg"
   xmlns="http://www.w3.org/2000/svg"
   xmlns:sodipodi="http://sodipodi.sourceforge.net/DTD/sodipodi-0.dtd"
   xmlns:inkscape="http://www.inkscape.org/namespaces/inkscape"
   width="69.280945mm"
   height="58.784958mm"
   viewBox="0 0 69.280945 58.784958"
   version="1.1"
   id="svg8"
   inkscape:version="1.0.2-2 (e86c870879, 2021-01-15)"
   sodipodi:docname="skull.svg">
  <defs
     id="defs2" />
  <sodipodi:namedview
     id="base"
     pagecolor="#ffffff"
     bordercolor="#666666"
     borderopacity="1.0"
     inkscape:pageopacity="0.0"
     inkscape:pageshadow="2"
     inkscape:zoom="0.7"
     inkscape:cx="-35.735614"
     inkscape:cy="82.989542"
     inkscape:document-units="mm"
     inkscape:current-layer="layer1"
     inkscape:document-rotation="0"
     showgrid="false"
     inkscape:snap-global="false"
     inkscape:window-width="1920"
     inkscape:window-height="1001"
     inkscape:window-x="-9"
     inkscape:window-y="-9"
     inkscape:window-maximized="1" />
  <metadata
     id="metadata5">
    <rdf:RDF>
      <cc:Work
         rdf:about="">
        <dc:format>image/svg+xml</dc:format>
        <dc:type
           rdf:resource="http://purl.org/dc/dcmitype/StillImage" />
        <dc:title />
      </cc:Work>
    </rdf:RDF>
  </metadata>
  <g
     inkscape:label="Layer 1"
     inkscape:groupmode="layer"
     id="layer1"
     transform="translate(-98.481009,-140.22668)">
    <path
       style="fill:#000000;fill-opacity:1;stroke:none;stroke-width:1.2;stroke-linecap:round;stroke-linejoin:round;stroke-miterlimit:4;stroke-dasharray:none;stroke-dashoffset:113.386;paint-order:fill markers stroke;stop-color:#000000"
       d="m 102.19144,174.07746 c 21.55814,-6.80861 41.69319,-7.60862 61.67244,-7.75082 -2.81833,13.19152 -8.06983,24.99866 -31.27052,26.59332 -14.80049,-0.15603 -26.92949,-3.8184 -30.40192,-18.8425 z"
       id="path893"
       sodipodi:nodetypes="cccc" />
    <path
       id="path884"
       style="fill:#ffffff;stroke-width:0.264583"
       d="m 148.6936,167.61632 c -1.60229,-0.024 -5.73601,0.46586 -5.64772,0.72398 0.0953,0.27858 4.78285,4.43615 5.01365,4.44676 0.0984,0.005 0.47693,-0.61682 0.84076,-1.38079 0.36383,-0.764 0.73782,-1.88022 0.83095,-2.48047 0.15791,-1.01741 0.12198,-1.10305 -0.52554,-1.26556 -0.10589,-0.0266 -0.28321,-0.0405 -0.5121,-0.0439 z m -9.21806,0.70796 c -0.47982,0.007 -1.01073,0.074 -1.53789,0.20309 l -0.68265,0.16692 0.89297,1.52135 c 0.49101,0.83675 1.00087,1.52135 1.13276,1.52135 0.13187,0 0.87061,-0.13286 1.64177,-0.29559 0.77112,-0.16272 1.44065,-0.33055 1.48775,-0.37258 0.12702,-0.11333 -0.74859,-1.7742 -1.21698,-2.30839 -0.26019,-0.29674 -0.918,-0.44837 -1.71773,-0.43615 z m -3.29798,0.28009 c -0.24333,-0.007 -1.17983,0.0927 -2.26446,0.24443 l -2.25414,0.31574 0.39534,1.33067 c 0.21735,0.73194 0.49255,1.58738 0.61185,1.90117 l 0.21703,0.57051 2.47169,-0.45682 c 1.35938,-0.25123 2.50298,-0.46839 2.54145,-0.48266 0.0635,-0.0236 -1.49227,-3.2248 -1.65883,-3.41322 -0.005,-0.006 -0.0252,-0.009 -0.0599,-0.01 z m -5.73402,0.44286 -1.20354,0.17105 c -1.52085,0.21664 -3.1874,0.64574 -3.1874,0.82063 0,0.0736 0.19663,0.91771 0.43717,1.87533 l 0.4377,1.74098 2.27118,-0.18448 c 1.24934,-0.10137 2.32354,-0.23582 2.38694,-0.29921 0.0634,-0.0634 -0.16791,-1.01729 -0.51366,-2.11977 z m -6.54328,1.17048 -1.63607,0.40255 c -0.89964,0.22143 -1.66519,0.42387 -1.7012,0.45011 -0.087,0.0634 0.48242,3.12987 0.62376,3.35897 0.0607,0.0984 0.49482,0.0686 0.96478,-0.0662 0.47003,-0.1348 1.30233,-0.24495 1.84898,-0.24495 0.89049,0 0.99375,-0.0706 0.99375,-0.67851 0,-0.37321 -0.24635,-1.25081 -0.54726,-1.95027 z m -7.66516,1.78387 c -0.29525,0 -4.56555,0.8093 -5.08804,0.96428 -0.45181,0.13401 -0.44257,0.19059 0.13229,0.80874 0.6418,0.69015 4.37202,2.99067 4.84568,2.98844 0.16299,-8e-4 0.27408,-0.9453 0.27956,-2.38125 0.005,-1.30899 -0.0714,-2.38021 -0.16949,-2.38021 z m 37.25407,1.5875 c -1.5834,0 -1.7685,0.0889 -1.59215,0.76326 0.10379,0.39689 0.35022,0.4499 1.6247,0.34881 0.82637,-0.0656 1.54709,-0.15879 1.60144,-0.20722 0.0544,-0.0484 0.0282,-0.27205 -0.0579,-0.49661 -0.11428,-0.29778 -0.54089,-0.40824 -1.57613,-0.40824 z m 0.90795,2.12028 c -1.3515,0.007 -1.88619,0.28577 -1.88619,0.98392 0,0.56811 0.0961,0.64317 0.68162,0.53123 0.95618,-0.18278 1.61382,0.62078 1.98231,2.42259 0.41481,2.02876 0.45609,2.14406 0.76737,2.14406 0.1501,0 0.27286,-0.40041 0.27286,-0.88987 0,-1.13222 -0.44243,-3.52262 -0.82682,-4.46794 -0.21796,-0.53602 -0.47879,-0.72665 -0.99115,-0.72399 z m -1.22473,2.35903 -1.45521,0.87953 c -1.30059,0.78613 -1.45116,0.96946 -1.41698,1.72238 0.0635,1.39787 1.12893,4.56044 1.53636,4.56044 0.20277,0 0.88381,-0.39206 1.5136,-0.87126 0.98287,-0.74789 1.15657,-1.02694 1.22576,-1.96887 0.0977,-1.32977 -0.32057,-2.99394 -0.94414,-3.75843 z m -39.33817,0.59376 c -0.76224,-0.005 -1.65651,0.30643 -1.76268,0.85783 -0.0718,0.37284 0.0152,0.45398 0.34985,0.32556 0.24493,-0.094 0.91189,-0.17105 1.48207,-0.17105 0.73919,0 1.03664,-0.11231 1.03664,-0.3917 0,-0.42203 -0.51303,-0.61696 -1.10588,-0.62064 z m 34.93947,1.83555 c -0.65688,0.0258 -2.87047,0.66667 -4.25193,1.25884 l -1.21958,0.52296 0.63458,2.73213 c 0.34909,1.50285 0.69525,2.99436 0.76946,3.31453 0.13012,0.56125 0.1777,0.5695 1.32138,0.22531 0.65244,-0.19636 1.69347,-0.65412 2.31355,-1.01751 0.6201,-0.3634 1.35332,-0.9104 1.62936,-1.21543 0.49387,-0.54572 0.49111,-0.59534 -0.185,-3.10059 -0.37791,-1.40033 -0.75261,-2.6114 -0.83251,-2.6913 -0.0233,-0.0233 -0.0855,-0.0326 -0.17931,-0.0289 z m -35.66914,0.49506 c -1.29328,-0.002 -1.16491,0.18142 -0.90435,3.26388 0.2086,2.46753 0.62323,2.41288 0.62323,-0.0822 0,-2.04798 0.25365,-2.31244 1.79213,-1.87121 0.82351,0.23618 0.8537,0.21703 0.8537,-0.53071 v -0.77515 h -1.71979 c -0.24654,0 -0.46016,-0.004 -0.64492,-0.005 z m 28.62151,1.66656 c -0.0531,-0.002 -0.10996,0.008 -0.17311,0.0227 -0.30319,0.0728 -1.89085,0.33529 -3.52796,0.58343 -1.63711,0.24814 -2.97656,0.57223 -2.97656,0.72037 0,0.34244 1.06442,6.2897 1.20716,6.7448 0.13774,0.43924 2.07603,0.20108 5.10305,-0.62683 1.21501,-0.33232 2.26742,-0.66288 2.33886,-0.73432 0.0714,-0.0714 -0.25778,-1.63492 -0.73173,-3.47473 -0.69115,-2.68293 -0.86786,-3.22353 -1.23971,-3.23546 z m -27.91354,0.64079 0.11782,1.63039 c 0.15322,2.11839 0.73443,2.8825 2.88872,3.79771 1.99633,0.84809 2.6267,0.91415 2.59879,0.27285 -0.0111,-0.25466 -0.16256,-1.35599 -0.33642,-2.4474 l -0.31625,-1.98437 -1.37769,-0.45889 c -0.75779,-0.25244 -1.87203,-0.53795 -2.47634,-0.63459 z m 9.16533,1.26711 c -0.46083,0.001 -0.94819,0.0228 -1.35083,0.0641 l -1.4645,0.15089 0.16018,1.61334 c 0.16563,1.6707 0.54041,3.20945 0.92863,3.8132 0.34727,0.54004 2.14694,1.08271 3.6339,1.09554 l 1.34617,0.0114 -0.34986,-2.44688 c -0.62942,-4.40505 -0.49837,-4.08089 -1.71204,-4.24367 -0.29652,-0.0398 -0.73083,-0.059 -1.19165,-0.0579 z m 10.04641,0.002 -2.8293,0.0263 c -1.5559,0.0147 -2.89287,0.091 -2.97137,0.1695 -0.0785,0.0785 -0.0466,1.61362 0.0708,3.41116 l 0.21341,3.26802 0.79375,0.17466 c 0.43657,0.0961 1.21047,0.13058 1.7198,0.0765 0.50932,-0.0541 1.72971,-0.17553 2.71197,-0.26975 1.41031,-0.13528 1.78459,-0.26228 1.77922,-0.60358 -0.004,-0.23771 -0.34039,-1.7417 -0.74776,-3.34243 z" />
    <path
       id="path847"
       style="fill:#000000;stroke-width:0.999999"
       d="m 502.10547,529.99609 c -11.69202,0.0963 -23.34797,1.45762 -34.4668,4.16211 -33.23354,8.08358 -58.10791,22.52349 -74.64062,43.32813 -9.96892,12.54489 -18.60442,32.2413 -20.37305,46.47265 -1.10313,8.876 -0.39341,10.28217 7.07422,14.04688 l 6.52344,3.28906 -5.69727,6.29492 c -5.39599,5.96262 -5.68867,6.55404 -5.52539,11.16211 0.48971,13.83682 11.60434,39.23311 23.00781,52.57227 18.9134,22.12377 50.22607,37.2119 83.63086,40.29883 11.97264,1.10642 30.61884,0.48649 43.01172,-1.42969 28.64103,-4.42844 57.02856,-18.2265 76.05273,-36.9668 14.20714,-13.99517 21.94292,-26.18111 27.79688,-43.78906 5.96995,-17.95691 7.35841,-37.59244 3.06445,-43.34375 -1.13665,-1.52239 -5.7127,-5.04239 -10.16797,-7.82227 -4.45526,-2.77984 -8.37456,-5.32963 -8.71093,-5.66601 -0.33623,-0.33627 0.97686,-2.51419 2.91992,-4.83985 2.80547,-3.35792 3.531,-5.0829 3.52344,-8.38281 -0.0275,-11.6973 -17.18829,-34.56665 -35.03125,-46.68359 -21.99571,-14.93701 -52.11258,-22.94911 -81.99219,-22.70313 z m -1.71289,6.11329 c 12.89017,-0.0942 26.65787,0.73229 34.43554,2.41992 17.96565,3.89828 33.33157,10.10718 45.81055,18.51172 13.09206,8.81744 27.17147,25.32591 32.09571,37.63281 1.98795,4.96845 1.47343,6.48574 -4.47657,13.20703 -2.26571,2.55938 -4.10496,5.0344 -4.08984,5.5 0.0155,0.4656 4.79227,3.75298 10.61523,7.30664 5.82297,3.55366 11.27292,7.5095 12.11133,8.78906 3.47584,5.30483 0.92689,26.1415 -5.19726,42.49219 -5.13514,13.7102 -11.75173,23.83556 -23.0586,35.28711 -17.6115,17.83687 -39.52851,29.56086 -67.5,36.10742 -8.57495,2.00689 -13.80002,2.5252 -28.5,2.82227 -9.90002,0.19993 -19.57501,0.16288 -21.5,-0.082 -45.56247,-5.80109 -78.37212,-27.52869 -93.20117,-61.71875 -3.52728,-8.13253 -7.79807,-22.77554 -7.77539,-26.65821 0.005,-0.82499 3.38731,-5.18248 7.51758,-9.68359 l 7.50976,-8.18359 -8.65625,-4.71876 -8.65429,-4.71679 0.58789,-6.3125 c 1.13903,-12.19767 8.89851,-30.33173 18.08593,-42.27149 16.14274,-20.97868 43.94922,-36.48086 78.58594,-43.8125 5.73222,-1.21335 15.22822,-1.84472 25.25391,-1.91796 z m 31.58594,16.43359 c -7.96138,-0.0344 -15.6838,0.57945 -19.73438,1.85351 -22.2932,7.01209 -18.13848,32.21695 8.19727,49.72266 8.2504,5.48413 14.96694,8.58805 24.19726,11.18164 3.48877,0.98034 9.08029,1.30862 18.5,1.08789 11.90211,-0.2787 14.15102,-0.61225 19,-2.83008 11.20165,-5.12337 16,-11.857 16,-22.45117 0,-6.98506 -2.84075,-12.34208 -9.92578,-18.71289 -9.65061,-8.67779 -19.70133,-13.78471 -35.07422,-17.82226 -4.9998,-1.31307 -13.19878,-1.99493 -21.16015,-2.0293 z m -93.83985,11.68359 c -10.79905,0 -11.89617,0.18996 -18,3.10352 -15.90977,7.59435 -26.95833,21.99566 -30.16015,39.31054 -0.5503,2.97703 -0.71768,6.92425 -0.3711,8.77149 1.27287,6.78486 9.46199,13.2873 20.03125,15.90625 22.187,5.49762 48.5321,-5.7913 57.43164,-24.60938 5.93836,-12.55668 5.03103,-24.47111 -2.50195,-32.8496 -6.83981,-7.60751 -12.39562,-9.63282 -26.42969,-9.63282 z m 52.05078,27.66406 c -0.26535,-0.0181 -0.52906,-0.008 -0.80078,0.0234 -4.89683,0.57135 -9.74477,10.77299 -10.95898,23.0625 -0.64328,6.5105 -0.73583,6.45935 9.07031,5.11524 l 4.63867,-0.63672 v -5.86328 c 0,-7.66458 1.90346,-7.77961 6.08789,-0.36524 l 3.10352,5.5 h 6.4043 c 3.52251,0 6.40429,-0.40485 6.40429,-0.90039 0,-1.60335 -9.1164,-13.08322 -15.67773,-19.74219 -4.52575,-4.59308 -6.41404,-6.06675 -8.27149,-6.19336 z"
       transform="scale(0.26458333)" />
  </g>
</svg>
